<mxfile host="Electron" agent="Mozilla/5.0 (X11; Linux x86_64) AppleWebKit/537.36 (KHTML, like Gecko) draw.io/26.1.1 Chrome/132.0.6834.210 Electron/34.3.3 Safari/537.36" version="26.1.1">
  <diagram name="Page-1" id="btl3_zLyljsMoNGlid0N">
    <mxGraphModel dx="768" dy="708" grid="1" gridSize="10" guides="1" tooltips="1" connect="1" arrows="1" fold="1" page="1" pageScale="1" pageWidth="850" pageHeight="1100" math="0" shadow="0">
      <root>
        <mxCell id="0" />
        <mxCell id="1" parent="0" />
        <mxCell id="bDa-y90cCUntLPeZ9zy9-19" value="" style="pointerEvents=1;verticalLabelPosition=bottom;shadow=0;dashed=0;align=center;html=1;verticalAlign=top;shape=mxgraph.electrical.signal_sources.protective_earth;" parent="1" vertex="1">
          <mxGeometry x="60" y="320" width="25" height="20" as="geometry" />
        </mxCell>
        <mxCell id="bDa-y90cCUntLPeZ9zy9-63" style="edgeStyle=orthogonalEdgeStyle;rounded=0;orthogonalLoop=1;jettySize=auto;html=1;entryX=1;entryY=0.5;entryDx=0;entryDy=0;endArrow=none;endFill=0;" parent="1" source="bDa-y90cCUntLPeZ9zy9-20" target="bDa-y90cCUntLPeZ9zy9-61" edge="1">
          <mxGeometry relative="1" as="geometry" />
        </mxCell>
        <mxCell id="bDa-y90cCUntLPeZ9zy9-71" value="3.3 V" style="edgeLabel;html=1;align=center;verticalAlign=middle;resizable=0;points=[];" parent="bDa-y90cCUntLPeZ9zy9-63" vertex="1" connectable="0">
          <mxGeometry x="0.3715" relative="1" as="geometry">
            <mxPoint x="-3" y="-10" as="offset" />
          </mxGeometry>
        </mxCell>
        <mxCell id="bDa-y90cCUntLPeZ9zy9-20" value="Arduino" style="rounded=0;whiteSpace=wrap;html=1;direction=west;" parent="1" vertex="1">
          <mxGeometry x="90" y="180" width="50" height="20" as="geometry" />
        </mxCell>
        <mxCell id="bDa-y90cCUntLPeZ9zy9-21" value="24 V&lt;div&gt;&lt;br&gt;&lt;/div&gt;" style="verticalLabelPosition=bottom;shadow=0;dashed=0;align=center;fillColor=strokeColor;html=1;verticalAlign=top;strokeWidth=1;shape=mxgraph.electrical.miscellaneous.monocell_battery;" parent="1" vertex="1">
          <mxGeometry x="110" y="270" width="40" height="20" as="geometry" />
        </mxCell>
        <mxCell id="bDa-y90cCUntLPeZ9zy9-25" style="edgeStyle=orthogonalEdgeStyle;rounded=0;orthogonalLoop=1;jettySize=auto;html=1;exitX=0;exitY=0.5;exitDx=0;exitDy=0;exitPerimeter=0;entryX=0.5;entryY=0;entryDx=0;entryDy=0;entryPerimeter=0;endArrow=none;endFill=0;" parent="1" source="bDa-y90cCUntLPeZ9zy9-21" target="bDa-y90cCUntLPeZ9zy9-19" edge="1">
          <mxGeometry relative="1" as="geometry" />
        </mxCell>
        <mxCell id="bDa-y90cCUntLPeZ9zy9-43" style="edgeStyle=orthogonalEdgeStyle;rounded=0;orthogonalLoop=1;jettySize=auto;html=1;endArrow=none;endFill=0;" parent="1" source="bDa-y90cCUntLPeZ9zy9-28" target="bDa-y90cCUntLPeZ9zy9-40" edge="1">
          <mxGeometry relative="1" as="geometry" />
        </mxCell>
        <mxCell id="bDa-y90cCUntLPeZ9zy9-66" style="edgeStyle=orthogonalEdgeStyle;rounded=0;orthogonalLoop=1;jettySize=auto;html=1;exitX=1;exitY=0.5;exitDx=0;exitDy=0;entryX=1;entryY=0.5;entryDx=0;entryDy=0;endArrow=none;endFill=0;" parent="1" source="bDa-y90cCUntLPeZ9zy9-28" target="bDa-y90cCUntLPeZ9zy9-64" edge="1">
          <mxGeometry relative="1" as="geometry" />
        </mxCell>
        <mxCell id="bDa-y90cCUntLPeZ9zy9-72" value="3.3 V" style="edgeLabel;html=1;align=center;verticalAlign=middle;resizable=0;points=[];" parent="bDa-y90cCUntLPeZ9zy9-66" vertex="1" connectable="0">
          <mxGeometry x="0.0779" relative="1" as="geometry">
            <mxPoint x="-1" y="-10" as="offset" />
          </mxGeometry>
        </mxCell>
        <mxCell id="bDa-y90cCUntLPeZ9zy9-28" value="Arduino" style="rounded=0;whiteSpace=wrap;html=1;direction=west;" parent="1" vertex="1">
          <mxGeometry x="90" y="150" width="50" height="20" as="geometry" />
        </mxCell>
        <mxCell id="bDa-y90cCUntLPeZ9zy9-44" style="edgeStyle=orthogonalEdgeStyle;rounded=0;orthogonalLoop=1;jettySize=auto;html=1;endArrow=none;endFill=0;" parent="1" source="bDa-y90cCUntLPeZ9zy9-34" target="bDa-y90cCUntLPeZ9zy9-41" edge="1">
          <mxGeometry relative="1" as="geometry" />
        </mxCell>
        <mxCell id="bDa-y90cCUntLPeZ9zy9-67" style="edgeStyle=orthogonalEdgeStyle;rounded=0;orthogonalLoop=1;jettySize=auto;html=1;exitX=1;exitY=0.5;exitDx=0;exitDy=0;entryX=1;entryY=0.5;entryDx=0;entryDy=0;endArrow=none;endFill=0;" parent="1" source="bDa-y90cCUntLPeZ9zy9-34" target="bDa-y90cCUntLPeZ9zy9-65" edge="1">
          <mxGeometry relative="1" as="geometry" />
        </mxCell>
        <mxCell id="bDa-y90cCUntLPeZ9zy9-73" value="3.3 V" style="edgeLabel;html=1;align=center;verticalAlign=middle;resizable=0;points=[];" parent="bDa-y90cCUntLPeZ9zy9-67" vertex="1" connectable="0">
          <mxGeometry x="-0.1548" y="-1" relative="1" as="geometry">
            <mxPoint x="-5" y="-9" as="offset" />
          </mxGeometry>
        </mxCell>
        <mxCell id="bDa-y90cCUntLPeZ9zy9-34" value="Arduino" style="rounded=0;whiteSpace=wrap;html=1;direction=west;" parent="1" vertex="1">
          <mxGeometry x="90" y="120" width="50" height="20" as="geometry" />
        </mxCell>
        <mxCell id="bDa-y90cCUntLPeZ9zy9-37" value="" style="shape=waypoint;sketch=0;fillStyle=solid;size=6;pointerEvents=1;points=[];fillColor=none;resizable=0;rotatable=0;perimeter=centerPerimeter;snapToPoint=1;" parent="1" vertex="1">
          <mxGeometry x="170" y="180" width="20" height="20" as="geometry" />
        </mxCell>
        <mxCell id="bDa-y90cCUntLPeZ9zy9-46" style="edgeStyle=orthogonalEdgeStyle;rounded=0;orthogonalLoop=1;jettySize=auto;html=1;endArrow=none;endFill=0;" parent="1" source="bDa-y90cCUntLPeZ9zy9-40" target="bDa-y90cCUntLPeZ9zy9-37" edge="1">
          <mxGeometry relative="1" as="geometry" />
        </mxCell>
        <mxCell id="bDa-y90cCUntLPeZ9zy9-40" value="" style="shape=waypoint;sketch=0;fillStyle=solid;size=6;pointerEvents=1;points=[];fillColor=none;resizable=0;rotatable=0;perimeter=centerPerimeter;snapToPoint=1;" parent="1" vertex="1">
          <mxGeometry x="170" y="150" width="20" height="20" as="geometry" />
        </mxCell>
        <mxCell id="bDa-y90cCUntLPeZ9zy9-41" value="" style="shape=waypoint;sketch=0;fillStyle=solid;size=6;pointerEvents=1;points=[];fillColor=none;resizable=0;rotatable=0;perimeter=centerPerimeter;snapToPoint=1;" parent="1" vertex="1">
          <mxGeometry x="170" y="120" width="20" height="20" as="geometry" />
        </mxCell>
        <mxCell id="bDa-y90cCUntLPeZ9zy9-42" style="edgeStyle=orthogonalEdgeStyle;rounded=0;orthogonalLoop=1;jettySize=auto;html=1;entryX=0.094;entryY=0.491;entryDx=0;entryDy=0;entryPerimeter=0;endArrow=none;endFill=0;" parent="1" source="bDa-y90cCUntLPeZ9zy9-20" target="bDa-y90cCUntLPeZ9zy9-37" edge="1">
          <mxGeometry relative="1" as="geometry" />
        </mxCell>
        <mxCell id="bDa-y90cCUntLPeZ9zy9-47" value="12V" style="edgeLabel;html=1;align=center;verticalAlign=middle;resizable=0;points=[];" parent="bDa-y90cCUntLPeZ9zy9-42" vertex="1" connectable="0">
          <mxGeometry x="-0.429" y="-1" relative="1" as="geometry">
            <mxPoint x="3" y="-11" as="offset" />
          </mxGeometry>
        </mxCell>
        <mxCell id="bDa-y90cCUntLPeZ9zy9-45" style="edgeStyle=orthogonalEdgeStyle;rounded=0;orthogonalLoop=1;jettySize=auto;html=1;entryX=0.49;entryY=0.065;entryDx=0;entryDy=0;entryPerimeter=0;endArrow=none;endFill=0;" parent="1" source="bDa-y90cCUntLPeZ9zy9-41" target="bDa-y90cCUntLPeZ9zy9-40" edge="1">
          <mxGeometry relative="1" as="geometry" />
        </mxCell>
        <mxCell id="bDa-y90cCUntLPeZ9zy9-48" value="12V" style="edgeLabel;html=1;align=center;verticalAlign=middle;resizable=0;points=[];" parent="1" vertex="1" connectable="0">
          <mxGeometry x="160" y="150" as="geometry" />
        </mxCell>
        <mxCell id="bDa-y90cCUntLPeZ9zy9-49" value="12V" style="edgeLabel;html=1;align=center;verticalAlign=middle;resizable=0;points=[];" parent="1" vertex="1" connectable="0">
          <mxGeometry x="160" y="120" as="geometry" />
        </mxCell>
        <mxCell id="bDa-y90cCUntLPeZ9zy9-58" style="edgeStyle=orthogonalEdgeStyle;rounded=0;orthogonalLoop=1;jettySize=auto;html=1;exitX=0.5;exitY=0;exitDx=0;exitDy=0;endArrow=none;endFill=0;" parent="1" source="bDa-y90cCUntLPeZ9zy9-55" target="bDa-y90cCUntLPeZ9zy9-37" edge="1">
          <mxGeometry relative="1" as="geometry" />
        </mxCell>
        <mxCell id="bDa-y90cCUntLPeZ9zy9-55" value="step&lt;div&gt;down&lt;/div&gt;" style="whiteSpace=wrap;html=1;aspect=fixed;" parent="1" vertex="1">
          <mxGeometry x="165" y="210" width="30" height="30" as="geometry" />
        </mxCell>
        <mxCell id="bDa-y90cCUntLPeZ9zy9-61" value="sensors" style="rounded=1;whiteSpace=wrap;html=1;" parent="1" vertex="1">
          <mxGeometry x="10" y="182.5" width="50" height="15" as="geometry" />
        </mxCell>
        <mxCell id="bDa-y90cCUntLPeZ9zy9-64" value="sensors" style="rounded=1;whiteSpace=wrap;html=1;" parent="1" vertex="1">
          <mxGeometry x="10" y="152.5" width="50" height="15" as="geometry" />
        </mxCell>
        <mxCell id="bDa-y90cCUntLPeZ9zy9-65" value="sensors" style="rounded=1;whiteSpace=wrap;html=1;" parent="1" vertex="1">
          <mxGeometry x="10" y="122.5" width="50" height="15" as="geometry" />
        </mxCell>
        <mxCell id="bDa-y90cCUntLPeZ9zy9-90" style="edgeStyle=orthogonalEdgeStyle;rounded=0;orthogonalLoop=1;jettySize=auto;html=1;entryX=0.5;entryY=1;entryDx=0;entryDy=0;endArrow=none;endFill=0;" parent="1" source="bDa-y90cCUntLPeZ9zy9-79" target="bDa-y90cCUntLPeZ9zy9-89" edge="1">
          <mxGeometry relative="1" as="geometry" />
        </mxCell>
        <mxCell id="bDa-y90cCUntLPeZ9zy9-79" value="" style="shape=waypoint;sketch=0;fillStyle=solid;size=6;pointerEvents=1;points=[];fillColor=none;resizable=0;rotatable=0;perimeter=centerPerimeter;snapToPoint=1;" parent="1" vertex="1">
          <mxGeometry x="170" y="270" width="20" height="20" as="geometry" />
        </mxCell>
        <mxCell id="bDa-y90cCUntLPeZ9zy9-80" style="edgeStyle=orthogonalEdgeStyle;rounded=0;orthogonalLoop=1;jettySize=auto;html=1;exitX=1;exitY=0.5;exitDx=0;exitDy=0;exitPerimeter=0;entryX=-0.03;entryY=0.49;entryDx=0;entryDy=0;entryPerimeter=0;endArrow=none;endFill=0;" parent="1" source="bDa-y90cCUntLPeZ9zy9-21" target="bDa-y90cCUntLPeZ9zy9-79" edge="1">
          <mxGeometry relative="1" as="geometry" />
        </mxCell>
        <mxCell id="bDa-y90cCUntLPeZ9zy9-81" style="edgeStyle=orthogonalEdgeStyle;rounded=0;orthogonalLoop=1;jettySize=auto;html=1;entryX=0.61;entryY=0.29;entryDx=0;entryDy=0;entryPerimeter=0;endArrow=none;endFill=0;" parent="1" source="bDa-y90cCUntLPeZ9zy9-55" target="bDa-y90cCUntLPeZ9zy9-79" edge="1">
          <mxGeometry relative="1" as="geometry" />
        </mxCell>
        <mxCell id="bDa-y90cCUntLPeZ9zy9-97" style="edgeStyle=orthogonalEdgeStyle;rounded=0;orthogonalLoop=1;jettySize=auto;html=1;exitX=1;exitY=0.5;exitDx=0;exitDy=0;exitPerimeter=0;entryX=0;entryY=0.5;entryDx=0;entryDy=0;endArrow=none;endFill=0;" parent="1" source="bDa-y90cCUntLPeZ9zy9-82" target="bDa-y90cCUntLPeZ9zy9-96" edge="1">
          <mxGeometry relative="1" as="geometry" />
        </mxCell>
        <mxCell id="bDa-y90cCUntLPeZ9zy9-82" value="&lt;div&gt;12 V&lt;/div&gt;" style="verticalLabelPosition=bottom;shadow=0;dashed=0;align=center;fillColor=strokeColor;html=1;verticalAlign=top;strokeWidth=1;shape=mxgraph.electrical.miscellaneous.monocell_battery;" parent="1" vertex="1">
          <mxGeometry x="110" y="420" width="40" height="20" as="geometry" />
        </mxCell>
        <mxCell id="bDa-y90cCUntLPeZ9zy9-85" value="" style="pointerEvents=1;verticalLabelPosition=bottom;shadow=0;dashed=0;align=center;html=1;verticalAlign=top;shape=mxgraph.electrical.signal_sources.protective_earth;" parent="1" vertex="1">
          <mxGeometry x="60" y="470" width="25" height="20" as="geometry" />
        </mxCell>
        <mxCell id="bDa-y90cCUntLPeZ9zy9-86" style="edgeStyle=orthogonalEdgeStyle;rounded=0;orthogonalLoop=1;jettySize=auto;html=1;exitX=0;exitY=0.5;exitDx=0;exitDy=0;exitPerimeter=0;entryX=0.5;entryY=0;entryDx=0;entryDy=0;entryPerimeter=0;endArrow=none;endFill=0;" parent="1" target="bDa-y90cCUntLPeZ9zy9-85" edge="1">
          <mxGeometry relative="1" as="geometry">
            <mxPoint x="110" y="430" as="sourcePoint" />
          </mxGeometry>
        </mxCell>
        <mxCell id="bDa-y90cCUntLPeZ9zy9-87" value="Pump" style="rounded=0;whiteSpace=wrap;html=1;" parent="1" vertex="1">
          <mxGeometry x="250" y="415" width="70" height="30" as="geometry" />
        </mxCell>
        <mxCell id="bDa-y90cCUntLPeZ9zy9-94" value="" style="edgeStyle=orthogonalEdgeStyle;rounded=0;orthogonalLoop=1;jettySize=auto;html=1;endArrow=none;endFill=0;" parent="1" source="bDa-y90cCUntLPeZ9zy9-89" target="bDa-y90cCUntLPeZ9zy9-93" edge="1">
          <mxGeometry relative="1" as="geometry" />
        </mxCell>
        <mxCell id="bDa-y90cCUntLPeZ9zy9-89" value="Relays" style="rounded=0;whiteSpace=wrap;html=1;" parent="1" vertex="1">
          <mxGeometry x="225" y="215" width="40" height="20" as="geometry" />
        </mxCell>
        <mxCell id="bDa-y90cCUntLPeZ9zy9-93" value="Valves" style="rounded=0;whiteSpace=wrap;html=1;" parent="1" vertex="1">
          <mxGeometry x="225" y="160" width="40" height="27.5" as="geometry" />
        </mxCell>
        <mxCell id="bDa-y90cCUntLPeZ9zy9-98" style="edgeStyle=orthogonalEdgeStyle;rounded=0;orthogonalLoop=1;jettySize=auto;html=1;exitX=1;exitY=0.5;exitDx=0;exitDy=0;entryX=0;entryY=0.5;entryDx=0;entryDy=0;endArrow=none;endFill=0;" parent="1" source="bDa-y90cCUntLPeZ9zy9-96" target="bDa-y90cCUntLPeZ9zy9-87" edge="1">
          <mxGeometry relative="1" as="geometry" />
        </mxCell>
        <mxCell id="bDa-y90cCUntLPeZ9zy9-96" value="Relays" style="rounded=0;whiteSpace=wrap;html=1;" parent="1" vertex="1">
          <mxGeometry x="170" y="420" width="40" height="20" as="geometry" />
        </mxCell>
        <mxCell id="ibh-DPJEPkWeWY2KnYJF-1" value="" style="pointerEvents=1;verticalLabelPosition=bottom;shadow=0;dashed=0;align=center;html=1;verticalAlign=top;shape=mxgraph.electrical.signal_sources.protective_earth;" vertex="1" parent="1">
          <mxGeometry x="250" y="347.5" width="25" height="20" as="geometry" />
        </mxCell>
        <mxCell id="ibh-DPJEPkWeWY2KnYJF-2" style="edgeStyle=orthogonalEdgeStyle;rounded=0;orthogonalLoop=1;jettySize=auto;html=1;exitX=0;exitY=0.5;exitDx=0;exitDy=0;exitPerimeter=0;entryX=0.5;entryY=0;entryDx=0;entryDy=0;entryPerimeter=0;endArrow=none;endFill=0;" edge="1" parent="1" target="ibh-DPJEPkWeWY2KnYJF-1">
          <mxGeometry relative="1" as="geometry">
            <mxPoint x="300" y="307.5" as="sourcePoint" />
          </mxGeometry>
        </mxCell>
        <mxCell id="ibh-DPJEPkWeWY2KnYJF-9" style="edgeStyle=orthogonalEdgeStyle;rounded=0;orthogonalLoop=1;jettySize=auto;html=1;entryX=0;entryY=0.5;entryDx=0;entryDy=0;endArrow=none;startFill=0;" edge="1" parent="1" source="ibh-DPJEPkWeWY2KnYJF-3" target="ibh-DPJEPkWeWY2KnYJF-6">
          <mxGeometry relative="1" as="geometry" />
        </mxCell>
        <mxCell id="ibh-DPJEPkWeWY2KnYJF-3" value="&lt;div&gt;5 V&lt;/div&gt;" style="verticalLabelPosition=bottom;shadow=0;dashed=0;align=center;fillColor=strokeColor;html=1;verticalAlign=top;strokeWidth=1;shape=mxgraph.electrical.miscellaneous.monocell_battery;" vertex="1" parent="1">
          <mxGeometry x="300" y="297.5" width="40" height="20" as="geometry" />
        </mxCell>
        <mxCell id="ibh-DPJEPkWeWY2KnYJF-6" value="Raspberry&lt;div&gt;Pi&lt;/div&gt;" style="rounded=0;whiteSpace=wrap;html=1;" vertex="1" parent="1">
          <mxGeometry x="380" y="292.5" width="80" height="30" as="geometry" />
        </mxCell>
      </root>
    </mxGraphModel>
  </diagram>
</mxfile>
